<svg id="visual" viewBox="0 0 960 540" width="960" height="540" xmlns="http://www.w3.org/2000/svg" xmlns:xlink="http://www.w3.org/1999/xlink" version="1.1"><rect x="0" y="0" width="960" height="540" fill="#132335"></rect><path d="M0 405L17.8 399.2C35.7 393.3 71.3 381.7 106.8 373.5C142.3 365.3 177.7 360.7 213.2 361.3C248.7 362 284.3 368 320 376.2C355.7 384.3 391.3 394.7 426.8 398C462.3 401.3 497.7 397.7 533.2 390.7C568.7 383.7 604.3 373.3 640 370.3C675.7 367.3 711.3 371.7 746.8 372.3C782.3 373 817.7 370 853.2 373.8C888.7 377.7 924.3 388.3 942.2 393.7L960 399L960 541L942.2 541C924.3 541 888.7 541 853.2 541C817.7 541 782.3 541 746.8 541C711.3 541 675.7 541 640 541C604.3 541 568.7 541 533.2 541C497.7 541 462.3 541 426.8 541C391.3 541 355.7 541 320 541C284.3 541 248.7 541 213.2 541C177.7 541 142.3 541 106.8 541C71.3 541 35.7 541 17.8 541L0 541Z" fill="#4e88c6"></path><path d="M0 394L17.8 393.2C35.7 392.3 71.3 390.7 106.8 396.2C142.3 401.7 177.7 414.3 213.2 416.5C248.7 418.7 284.3 410.3 320 412.7C355.7 415 391.3 428 426.8 427.8C462.3 427.7 497.7 414.3 533.2 409.3C568.7 404.3 604.3 407.7 640 415.7C675.7 423.7 711.3 436.3 746.8 433.5C782.3 430.7 817.7 412.3 853.2 408.2C888.7 404 924.3 414 942.2 419L960 424L960 541L942.2 541C924.3 541 888.7 541 853.2 541C817.7 541 782.3 541 746.8 541C711.3 541 675.7 541 640 541C604.3 541 568.7 541 533.2 541C497.7 541 462.3 541 426.8 541C391.3 541 355.7 541 320 541C284.3 541 248.7 541 213.2 541C177.7 541 142.3 541 106.8 541C71.3 541 35.7 541 17.8 541L0 541Z" fill="#4377af"></path><path d="M0 440L17.8 445.8C35.7 451.7 71.3 463.3 106.8 470.7C142.3 478 177.7 481 213.2 478.8C248.7 476.7 284.3 469.3 320 465.8C355.7 462.3 391.3 462.7 426.8 460.8C462.3 459 497.7 455 533.2 457.5C568.7 460 604.3 469 640 466.5C675.7 464 711.3 450 746.8 445.2C782.3 440.3 817.7 444.7 853.2 452.5C888.7 460.3 924.3 471.7 942.2 477.3L960 483L960 541L942.2 541C924.3 541 888.7 541 853.2 541C817.7 541 782.3 541 746.8 541C711.3 541 675.7 541 640 541C604.3 541 568.7 541 533.2 541C497.7 541 462.3 541 426.8 541C391.3 541 355.7 541 320 541C284.3 541 248.7 541 213.2 541C177.7 541 142.3 541 106.8 541C71.3 541 35.7 541 17.8 541L0 541Z" fill="#376698"></path><path d="M0 490L17.8 490C35.7 490 71.3 490 106.8 494.5C142.3 499 177.7 508 213.2 509.7C248.7 511.3 284.3 505.7 320 504.7C355.7 503.7 391.3 507.3 426.8 510.7C462.3 514 497.7 517 533.2 515C568.7 513 604.3 506 640 500.3C675.7 494.7 711.3 490.3 746.8 493C782.3 495.7 817.7 505.3 853.2 510C888.7 514.7 924.3 514.3 942.2 514.2L960 514L960 541L942.2 541C924.3 541 888.7 541 853.2 541C817.7 541 782.3 541 746.8 541C711.3 541 675.7 541 640 541C604.3 541 568.7 541 533.2 541C497.7 541 462.3 541 426.8 541C391.3 541 355.7 541 320 541C284.3 541 248.7 541 213.2 541C177.7 541 142.3 541 106.8 541C71.3 541 35.7 541 17.8 541L0 541Z" fill="#2c5682"></path></svg>