<svg width="98" height="154" viewBox="0 0 98 154" fill="none" xmlns="http://www.w3.org/2000/svg">
<g opacity="0.2">
<path d="M51.3928 0.424792C27.9498 0.424792 8.94545 2.90812 8.94545 5.97147C8.94545 9.03482 27.9498 11.5182 51.3928 11.5182C74.8358 11.5182 93.8401 9.03482 93.8401 5.97147C93.8401 2.90812 74.8358 0.424792 51.3928 0.424792Z" fill="#371A45"/>
</g>
<path d="M30.4461 84.8503H62.5921C67.5361 84.8503 71.5439 80.8424 71.5439 75.8984V44.5637C71.5439 39.6197 67.5361 35.6119 62.5921 35.6119L30.4461 35.6119C25.5021 35.6119 21.4942 39.6197 21.4942 44.5637L21.4942 75.8984C21.4942 80.8424 25.5021 84.8503 30.4461 84.8503Z" fill="white"/>
<path d="M30.4466 34.7156L62.5921 34.7156C68.0222 34.7156 72.4401 39.1335 72.4401 44.5636V75.8978C72.4401 81.3283 68.0222 85.7462 62.5921 85.7462H30.4466C25.016 85.7462 20.5986 81.3283 20.5986 75.8978L20.5986 44.5636C20.5986 39.1335 25.016 34.7156 30.4466 34.7156ZM62.5921 83.953C67.0341 83.953 70.6479 80.3397 70.6479 75.8968V44.5626C70.6479 40.1206 67.0345 36.5068 62.5921 36.5068L30.4466 36.5068C26.0041 36.5068 22.3903 40.1201 22.3903 44.5626L22.3903 75.8978C22.3903 80.3402 26.0036 83.954 30.4466 83.954L62.5921 83.953Z" fill="#371A45"/>
<path d="M15.4055 52.8088C15.4055 52.8088 13.1971 45.9194 20.4569 44.4418C21.7649 44.1729 23.0152 44.2828 24.1329 44.6909C28.9506 46.4672 31.281 53.8952 24.9519 61.328C24.618 61.7221 24.2596 62.1143 23.8766 62.5084C23.8594 62.5232 23.8433 62.5393 23.8284 62.5565C23.8284 62.5565 24.1656 63.112 25.2395 63.8964C25.914 64.3868 26.8814 64.9693 28.2366 65.5585L30.8382 73.5217L30.843 73.5352L31.3041 74.9468L34.1177 83.5441C34.1177 83.5441 31.5397 82.6683 28.2444 81.1762C27.1555 80.6833 25.9863 80.1211 24.8059 79.5006C24.4812 79.3305 24.1541 79.1537 23.827 78.9745C23.827 78.9745 23.1125 78.5891 21.9924 77.8943C16.266 74.3292 -0.0108185 62.6221 15.4055 52.8088Z" fill="white"/>
<g opacity="0.2">
<path d="M24.8074 79.5016C26.2768 77.7229 28.5171 76.1663 31.3056 74.9479L34.1191 83.5452C34.1191 83.5452 31.5412 82.6693 28.2458 81.1772C27.157 80.6844 25.9897 80.1221 24.8074 79.5016Z" fill="#371A45"/>
</g>
<path d="M53.2003 84.8513L61.7485 75.4919C64.3067 76.769 66.3162 78.3526 67.5664 80.1333C63.2052 82.7918 58.2886 84.4065 53.2003 84.8513Z" fill="#D8D8D8"/>
<path d="M28.6448 76.3141C32.8714 73.7694 39.0545 72.1656 45.9448 72.1656C53.3507 72.1656 59.9409 74.018 64.1613 76.8985C64.0379 77.1606 63.9151 77.4208 63.7869 77.6829C63.7869 77.6829 66.1438 91.2309 54.3518 95.8366C51.5852 96.4003 48.7683 96.6811 45.9448 96.6744C42.8783 96.6744 39.9525 96.356 37.2758 95.7783C27.1349 91.1254 29.2918 77.6829 29.2918 77.6829C29.0702 77.2256 28.8529 76.7689 28.6448 76.3141Z" fill="#D8D8D8"/>
<g opacity="0.2">
<path d="M29.0148 72.0389L28.2382 65.561C24.7212 64.0337 23.828 62.559 23.828 62.559C23.8444 62.5421 23.8612 62.5253 23.8762 62.5108C22.9329 63.2889 21.6672 64.1787 20.3385 64.6788C20.3385 64.6788 22.8437 65.9796 23.6054 66.9861C26.0543 70.2053 26.1054 71.3668 27.0424 72.6922C27.3455 73.1162 29.3588 72.751 29.0148 72.0389Z" fill="#371A45"/>
</g>
<g opacity="0.2">
<path d="M20.4565 44.4403C13.2824 45.903 15.355 52.6473 15.4032 52.8078C15.4032 52.8078 16.649 46.1313 23.1347 47.963C27.2818 49.1361 26.9311 54.9815 26.1395 59.0414C26.2092 59.2021 26.267 59.3676 26.3125 59.5367H26.3149C32.0418 51.0223 26.9532 43.1154 20.4565 44.4403Z" fill="#371A45"/>
</g>
<path d="M21.856 43.3992C24.6306 43.3992 27.1613 44.9048 28.5681 47.4977C30.4519 50.9665 30.4629 56.6996 25.0435 62.5773C25.5156 63.0166 26.4103 63.707 27.9587 64.4441C28.0664 64.4938 28.1632 64.5644 28.2435 64.6517C28.3237 64.7391 28.3858 64.8415 28.4262 64.9531C28.4666 65.0647 28.4844 65.1831 28.4786 65.3016C28.4728 65.4201 28.4435 65.5363 28.3925 65.6434C28.3415 65.7505 28.2697 65.8464 28.1813 65.9255C28.0929 66.0047 27.9897 66.0655 27.8776 66.1044C27.7656 66.1433 27.6469 66.1596 27.5285 66.1523C27.4101 66.1451 27.2943 66.1143 27.1878 66.0619C24.0674 64.5761 23.1539 63.1742 23.06 63.019L22.6991 62.4226L23.1881 61.9264C28.4978 56.5305 28.6351 51.3755 26.9942 48.3509C25.6885 45.942 23.2522 44.7814 20.6376 45.3157C18.7259 45.7055 17.3876 46.5341 16.6586 47.7785C15.4301 49.8772 16.251 52.5062 16.2592 52.5322L16.4702 53.1903L15.8873 53.5618C11.7638 56.187 9.73214 59.1277 9.84776 62.3026C10.1469 70.4957 24.1117 78.1073 24.2529 78.1834C29.2007 80.9136 34.3566 82.6745 34.4082 82.6919C34.6312 82.7698 34.8144 82.9326 34.9179 83.1449C35.0215 83.3571 35.0371 83.6017 34.9613 83.8254C34.8854 84.0491 34.7244 84.2338 34.5131 84.3394C34.3018 84.445 34.0574 84.4629 33.833 84.3892C33.6166 84.3159 28.4795 82.5627 23.3948 79.7569C22.7911 79.4322 8.3957 71.5865 8.05701 62.3701C7.92115 58.6643 10.0492 55.3135 14.3847 52.4031C14.1558 51.2743 13.9029 48.9343 15.1121 46.8728C16.1089 45.1702 17.8476 44.0554 20.2796 43.5596C20.7984 43.4535 21.3265 43.3998 21.856 43.3992Z" fill="#371A45"/>
<path d="M15.2706 52.0943C16.5714 51.6097 17.9517 51.2835 19.3479 51.3076C18.8507 51.6545 18.155 52.1131 17.6501 52.4528C17.1019 52.8165 16.5367 53.1894 15.9798 53.5228L15.2706 52.0943Z" fill="#371A45"/>
<path d="M10.5593 56.5116C10.6476 56.5118 10.7351 56.5294 10.8166 56.5634C10.8981 56.5975 10.9721 56.6472 11.0343 56.7099C11.0966 56.7725 11.1458 56.8468 11.1793 56.9286C11.2128 57.0103 11.2299 57.0978 11.2295 57.1861C11.2256 58.7649 12.6575 60.4588 14.877 61.5004C17.5456 62.753 21.5973 63.0879 24.9664 60.2738C25.0338 60.2151 25.1123 60.1705 25.1972 60.1425C25.2821 60.1145 25.3718 60.1037 25.4609 60.1108C25.55 60.1179 25.6369 60.1427 25.7163 60.1837C25.7957 60.2248 25.8662 60.2813 25.9235 60.3499C25.9808 60.4186 26.0238 60.4979 26.0501 60.5834C26.0763 60.6689 26.0853 60.7588 26.0764 60.8477C26.0674 60.9367 26.0409 61.023 25.9982 61.1016C25.9555 61.1801 25.8976 61.2494 25.8278 61.3053C21.9736 64.524 17.3485 64.1444 14.3061 62.7169C11.6154 61.4542 9.88051 59.2819 9.88581 57.1828C9.8867 57.0046 9.95803 56.8341 10.0842 56.7083C10.2104 56.5826 10.3812 56.5119 10.5593 56.5116Z" fill="#371A45"/>
<path d="M24.5289 63.1877C23.193 63.8622 21.8006 64.4639 20.3375 64.7602C21.5525 63.9894 22.5922 62.982 23.548 61.9298L24.528 63.1877H24.5289Z" fill="#371A45"/>
<path d="M47.2196 36.0662C47.3584 33.8284 47.448 31.5929 47.5063 29.4134C47.5198 28.8622 47.5332 28.3135 47.5443 27.7715C47.7303 18.2107 47.3694 10.0542 48.0839 7.99364C49.061 5.18874 51.5965 4.94496 51.5965 4.94496H60.2685C60.2685 4.94496 66.2623 4.64433 67.856 6.10989C69.4497 7.57545 69.2922 9.65624 68.1296 11.0967C67.1348 12.333 65.3517 12.8528 65.3517 12.8528C65.3517 12.8528 66.5562 21.7729 67.789 33.6477C67.8372 34.1295 67.8897 34.6151 67.9388 35.106C68.3151 38.7752 68.687 42.6906 69.0253 46.6918L47.2196 36.0662Z" fill="white"/>
<g opacity="0.2">
<path d="M47.2196 36.066C47.3584 33.8281 47.448 31.5927 47.5063 29.4131C47.5198 28.862 47.5332 28.3133 47.5443 27.7713C57.3827 27.1931 63.9912 30.6619 67.7881 33.6489C67.8362 34.1307 67.8887 34.6163 67.9379 35.1072C68.3142 38.7764 68.6861 42.6918 69.0243 46.693L47.2196 36.066Z" fill="#371A45"/>
</g>
<g opacity="0.2">
<path d="M67.8559 6.10979C66.2661 4.6476 60.2704 4.94582 60.2704 4.94582L51.5984 4.94582C51.5984 4.94582 49.0614 5.19104 48.0848 7.99497C47.9625 8.34619 47.8709 8.87517 47.8035 9.56074C48.9145 8.69981 50.0404 8.59141 50.0404 8.59141H59.8455C59.8455 8.59141 66.6202 8.25418 68.4211 9.90956C68.5155 9.99538 68.6054 10.0861 68.6904 10.1813C69.2849 8.85928 69.1331 7.28436 67.8559 6.10979Z" fill="#371A45"/>
</g>
<path d="M61.6627 4.01554C63.7069 4.01554 67.1174 4.21307 68.4616 5.4493C70.2485 7.09264 70.4022 9.70337 68.8272 11.6575C68.0949 12.5661 67.035 13.1365 66.3321 13.44C66.7657 16.7464 68.608 31.1429 69.9185 46.6151C69.9384 46.8519 69.8635 47.087 69.7102 47.2686C69.5569 47.4502 69.3377 47.5635 69.1009 47.5835C68.864 47.6035 68.629 47.5285 68.4474 47.3752C68.2658 47.2219 68.1525 47.0027 68.1325 46.7659C66.6501 29.2596 64.484 13.1327 64.4623 12.9717C64.4336 12.7591 64.4821 12.5433 64.5991 12.3634C64.7161 12.1836 64.8937 12.0517 65.0997 11.9918C65.1127 11.988 66.6298 11.5288 67.432 10.5335C68.2607 9.50537 68.5252 7.94297 67.2489 6.76888C66.3427 5.93589 62.6489 5.72487 60.3147 5.83905C60.3003 5.83905 60.2853 5.83905 60.2704 5.83905H51.6534C51.3947 5.87759 49.6521 6.21339 48.9309 8.28695C48.5055 9.5097 48.505 13.7922 48.504 18.7511C48.504 23.7259 48.504 29.9177 48.1133 36.1215C48.0984 36.3587 47.9899 36.5803 47.8116 36.7375C47.6334 36.8948 47.4 36.9747 47.1627 36.9598C46.9255 36.9449 46.7039 36.8364 46.5467 36.6582C46.3895 36.4799 46.3096 36.2465 46.3245 36.0093C46.7099 29.8618 46.7099 23.7009 46.7099 18.7506C46.7099 13.0035 46.7099 9.20667 47.236 7.69871C48.3879 4.38795 51.3836 4.06323 51.5103 4.0507C51.5387 4.0483 51.5676 4.04685 51.596 4.04685H60.2487C60.5147 4.03481 61.022 4.01554 61.6627 4.01554Z" fill="#371A45"/>
<path d="M55.9489 21.1894C59.4885 21.1894 63.5778 21.6345 67.09 23.1863C67.2998 23.2868 67.4623 23.4651 67.543 23.6833C67.6237 23.9016 67.6163 24.1427 67.5224 24.3555C67.4285 24.5684 67.2554 24.7364 67.0398 24.8239C66.8242 24.9114 66.583 24.9116 66.3673 24.8244C58.8135 21.4881 47.8936 23.7269 47.7838 23.7505C47.6686 23.7747 47.5498 23.776 47.4341 23.7542C47.3184 23.7325 47.2082 23.6882 47.1096 23.6239C47.0111 23.5596 46.9262 23.4764 46.8597 23.3793C46.7933 23.2821 46.7466 23.1729 46.7224 23.0577C46.6982 22.9425 46.697 22.8237 46.7187 22.708C46.7404 22.5923 46.7847 22.4821 46.849 22.3835C46.9133 22.285 46.9965 22.2001 47.0936 22.1336C47.1908 22.0672 47.3 22.0205 47.4152 21.9963C47.6797 21.9438 51.3504 21.1894 55.9489 21.1894Z" fill="#371A45"/>
<path d="M65.5603 13.7217C63.2049 14.1124 60.8909 13.9192 58.5822 13.5367C58.4701 13.5169 58.3697 13.4552 58.3013 13.3641C58.233 13.2731 58.2017 13.1595 58.214 13.0463C58.2262 12.9331 58.281 12.8287 58.3673 12.7544C58.4535 12.6801 58.5648 12.6413 58.6786 12.6459C60.834 12.7186 63.0998 12.6088 65.1397 11.9796C66.3634 11.6424 66.8042 13.4601 65.5598 13.7217H65.5603Z" fill="#371A45"/>
<path d="M45.859 36.0661C45.7198 33.8282 45.6302 31.5928 45.5699 29.4132C45.5569 28.8621 45.5434 28.3134 45.5319 27.7714C45.3459 18.2105 45.7068 10.0541 44.9923 7.9935C44.0157 5.18861 41.4797 4.94483 41.4797 4.94483H32.8077C32.8077 4.94483 26.8154 4.6442 25.2226 6.10928C23.6299 7.57436 23.7865 9.65563 24.9495 11.0961C25.9439 12.3324 27.7269 12.8522 27.7269 12.8522C27.7269 12.8522 26.5225 21.7723 25.2896 33.6471C25.2414 34.1289 25.1889 34.6145 25.1398 35.1054C24.7635 38.7746 24.3916 42.69 24.0534 46.6912L45.859 36.0661Z" fill="white"/>
<g opacity="0.2">
<path d="M45.859 36.066C45.7198 33.8281 45.6302 31.5927 45.5699 29.4131C45.5569 28.862 45.5434 28.3133 45.5319 27.7713C35.6935 27.1931 29.0855 30.6619 25.2882 33.6489C25.24 34.1307 25.1875 34.6163 25.1383 35.1072C24.7621 38.7764 24.3901 42.6918 24.0519 46.693L45.859 36.066Z" fill="#371A45"/>
</g>
<g opacity="0.2">
<path d="M25.2222 6.10979C26.8121 4.6476 32.8073 4.94582 32.8073 4.94582L41.4792 4.94582C41.4792 4.94582 44.0162 5.19104 44.9928 7.99497C45.1157 8.34619 45.2067 8.87517 45.2742 9.56074C44.1632 8.69981 43.0378 8.59141 43.0378 8.59141L33.2327 8.59141C33.2327 8.59141 26.4575 8.25418 24.6571 9.90956C24.5626 9.99538 24.4727 10.0861 24.3878 10.1813C23.7932 8.85928 23.945 7.28436 25.2222 6.10979Z" fill="#371A45"/>
</g>
<path d="M31.4154 4.01539C32.0567 4.01539 32.5635 4.03466 32.8299 4.04767H41.4802C41.5086 4.04767 41.5375 4.04767 41.566 4.05153C41.6927 4.06405 44.6888 4.38877 45.8403 7.69953C46.3649 9.20749 46.3654 13.0044 46.3664 18.7515C46.3664 23.7017 46.3664 29.8626 46.7518 36.0101C46.7667 36.2473 46.6867 36.4807 46.5295 36.659C46.3723 36.8373 46.1507 36.9458 45.9135 36.9607C45.6763 36.9755 45.4429 36.8956 45.2646 36.7384C45.0863 36.5812 44.9778 36.3596 44.963 36.1224C44.5742 29.9185 44.5732 23.7268 44.5722 18.7519C44.5722 13.793 44.5722 9.51052 44.1459 8.28778C43.428 6.2253 41.7008 5.88227 41.4209 5.83987H32.8058C32.7909 5.83987 32.776 5.83987 32.7615 5.83987C30.4278 5.72569 26.7335 5.93623 25.8273 6.7697C24.5511 7.94379 24.8156 9.50619 25.6442 10.5343C26.4464 11.5296 27.9635 11.9888 27.9789 11.9931C28.184 12.054 28.3607 12.1861 28.4771 12.3657C28.5935 12.5452 28.642 12.7604 28.6139 12.9726C28.5922 13.1335 26.4262 29.2604 24.9437 46.7667C24.9237 47.0035 24.8105 47.2227 24.6289 47.376C24.4473 47.5294 24.2122 47.6043 23.9754 47.5843C23.7385 47.5643 23.5193 47.451 23.366 47.2694C23.2127 47.0878 23.1378 46.8527 23.1578 46.6159C24.4682 31.1437 26.311 16.7458 26.7441 13.4408C26.0412 13.1378 24.9813 12.5674 24.249 11.6583C22.6741 9.70419 22.8278 7.09346 24.6147 5.45012C25.9608 4.21292 29.3713 4.01539 31.4154 4.01539Z" fill="#371A45"/>
<path d="M37.1293 21.1894C41.7288 21.1894 45.3985 21.9414 45.6639 21.9973C45.7791 22.0215 45.8884 22.0682 45.9855 22.1346C46.0827 22.201 46.1658 22.2859 46.2301 22.3845C46.2945 22.4831 46.3387 22.5933 46.3605 22.709C46.3822 22.8247 46.3809 22.9435 46.3567 23.0587C46.3325 23.1738 46.2859 23.2831 46.2194 23.3803C46.153 23.4774 46.0681 23.5605 45.9695 23.6249C45.871 23.6892 45.7607 23.7335 45.645 23.7552C45.5294 23.7769 45.4105 23.7756 45.2954 23.7514C45.186 23.7283 34.2545 21.4934 26.7123 24.8253C26.6038 24.8792 26.4856 24.9105 26.3647 24.9173C26.2438 24.9242 26.1228 24.9065 26.0089 24.8653C25.895 24.8241 25.7907 24.7602 25.7022 24.6776C25.6137 24.5949 25.5429 24.4952 25.494 24.3844C25.4451 24.2736 25.4192 24.1541 25.4178 24.033C25.4164 23.9119 25.4396 23.7918 25.4859 23.6799C25.5322 23.568 25.6007 23.4667 25.6873 23.382C25.7739 23.2973 25.8768 23.2311 25.9896 23.1873C29.5003 21.6374 33.5901 21.1894 37.1293 21.1894Z" fill="#371A45"/>
<path d="M27.938 11.9806C29.9783 12.6098 32.2436 12.7197 34.3991 12.6469C34.9531 12.6272 35.0408 13.4394 34.4954 13.5377C32.1868 13.9203 29.8733 14.1159 27.5174 13.7227C26.2759 13.4626 26.7104 11.6463 27.9375 11.9806H27.938Z" fill="#371A45"/>
<path d="M31.4154 4.01539C32.0567 4.01539 32.5635 4.03466 32.8299 4.04767H41.4802C41.5086 4.04767 41.5375 4.04767 41.566 4.05153C41.6927 4.06405 44.6888 4.38877 45.8403 7.69953C46.3649 9.20749 46.3654 13.0044 46.3664 18.7515C46.3664 23.7017 46.3664 29.8626 46.7518 36.0101C46.7667 36.2473 46.6867 36.4807 46.5295 36.659C46.3723 36.8373 46.1507 36.9458 45.9135 36.9607C45.6763 36.9755 45.4429 36.8956 45.2646 36.7384C45.0863 36.5812 44.9778 36.3596 44.963 36.1224C44.5742 29.9185 44.5732 23.7268 44.5722 18.7519C44.5722 13.793 44.5722 9.51052 44.1454 8.28778C43.428 6.2253 41.7004 5.88227 41.4205 5.83987H32.8058C32.7909 5.83987 32.776 5.83987 32.7615 5.83987C30.4273 5.72521 26.7335 5.93623 25.8273 6.7697C24.5511 7.94379 24.8156 9.50619 25.6442 10.5343C26.4464 11.5296 27.9635 11.9888 27.9789 11.9931C28.184 12.054 28.3607 12.1861 28.4771 12.3657C28.5935 12.5452 28.642 12.7604 28.6139 12.9726C28.5922 13.1335 26.4262 29.2604 24.9437 46.7667C24.9237 47.0035 24.8105 47.2227 24.6289 47.376C24.4473 47.5294 24.2122 47.6043 23.9754 47.5843C23.7385 47.5643 23.5193 47.451 23.366 47.2694C23.2127 47.0878 23.1378 46.8527 23.1578 46.6159C24.4682 31.1437 26.311 16.7458 26.7441 13.4408C26.0412 13.1378 24.9813 12.5674 24.249 11.6583C22.6741 9.70419 22.8278 7.09346 24.6142 5.45012C25.9608 4.21292 29.3713 4.01539 31.4154 4.01539Z" fill="#371A45"/>
<path d="M29.2908 77.6832C23.654 66.0204 21.1179 55.3472 22.8384 47.05C23.4521 44.09 24.4764 41.6541 25.7873 39.6514C28.6177 35.3361 32.8 33.039 37.1572 31.8688C40.3418 31.0136 43.6212 30.7607 46.5369 30.7607C48.7815 30.7607 51.2419 30.911 53.7091 31.3706C54.4009 31.4998 55.0932 31.653 55.7807 31.8336C59.6653 32.8555 63.4193 34.7633 66.2131 38.1858C68.0438 40.4304 69.4641 43.3264 70.2364 47.0505C71.9568 55.3476 69.4212 66.0209 63.784 77.6837" fill="white"/>
<path d="M22.3094 52.8087C22.2892 50.7853 22.4621 48.8615 22.8393 47.0496C22.9241 46.6346 23.0181 46.2306 23.1212 45.8374C23.7441 43.416 24.6581 41.3728 25.7893 39.6505C28.6187 35.3362 32.801 33.04 37.1592 31.8683C40.3447 31.0127 43.6241 30.7603 46.5384 30.7603C48.783 30.7603 51.2448 30.9106 53.711 31.3697C54.4033 31.4998 55.0957 31.652 55.7827 31.8332C59.6692 32.855 63.4217 34.7633 66.217 38.1864C67.855 40.1958 69.165 42.729 69.9782 45.9102C70.0745 46.2821 70.1598 46.6608 70.2403 47.0505C70.6165 48.8625 70.789 50.7867 70.7702 52.8097C70.7071 60.0541 68.1961 68.5686 63.7874 77.6837C63.7874 77.6837 67.0634 96.5318 46.5398 97.3224C26.0162 98.113 29.2922 77.6837 29.2922 77.6837C24.8816 68.5676 22.3725 60.0532 22.3094 52.8087Z" fill="white"/>
<g opacity="0.2">
<path d="M28.6448 76.3141C32.8714 73.7694 39.0545 72.1656 45.9448 72.1656C53.3507 72.1656 59.9409 74.018 64.1613 76.8985C64.0379 77.1606 63.9151 77.4208 63.7869 77.6829C63.7869 77.6829 66.1438 91.2309 54.3518 95.8366C51.5852 96.4003 48.7683 96.6811 45.9448 96.6744C42.8783 96.6744 39.9525 96.356 37.2758 95.7783C27.1349 91.1254 29.2918 77.6829 29.2918 77.6829C29.0702 77.2256 28.8529 76.7689 28.6448 76.3141Z" fill="#371A45"/>
</g>
<g opacity="0.2">
<path d="M22.8384 47.0497C23.4522 44.0901 24.4735 41.6538 25.7883 39.6506C28.6178 35.3363 32.8001 33.0401 37.1582 31.8684C40.3437 31.0128 43.6231 30.7604 46.5374 30.7604C48.782 30.7604 51.2439 30.9107 53.7101 31.3698C54.4024 31.4999 55.0947 31.6521 55.7817 31.8333C59.6682 32.8551 63.4207 34.7634 66.216 38.1864C68.0468 40.431 69.4666 43.3275 70.2393 47.0511C70.7144 49.3405 70.8656 51.8111 70.7143 54.4343C70.6457 53.2019 70.487 51.9762 70.2393 50.767C69.4685 47.042 68.0463 44.1479 66.216 41.9024C63.4217 38.4794 59.6682 36.5706 55.7817 35.5492C55.0942 35.3681 54.4019 35.2153 53.7101 35.0857C51.2439 34.6266 48.782 34.4763 46.5374 34.4763C43.6231 34.4763 40.3437 34.7292 37.1582 35.5844C32.7991 36.7536 28.6168 39.0532 25.7883 43.3665C24.4735 45.3688 23.4522 47.8061 22.8384 50.7651C22.5905 51.9743 22.4317 53.2 22.3634 54.4324C22.213 51.8096 22.3634 49.3391 22.8384 47.0497Z" fill="#371A45"/>
</g>
<path d="M66.5638 37.9017C68.2871 39.3046 69.3861 41.3146 70.1559 43.3635C72.5137 49.5004 72.0252 56.3503 70.3486 62.5864C70.2896 62.8142 70.1433 63.0097 69.9413 63.1306C69.7393 63.2514 69.4979 63.2879 69.2692 63.2322C69.0405 63.1766 68.8429 63.0331 68.7191 62.8329C68.5953 62.6328 68.5552 62.3919 68.6075 62.1624C68.8185 61.1468 69.0209 60.1317 69.1919 59.1133C69.8307 55.0803 70.0683 50.9274 69.2208 46.9215C68.6538 43.8863 67.2807 41.1912 65.8681 38.4663C65.6398 38.038 66.1851 37.5861 66.5624 37.8997L66.5638 37.9017Z" fill="#371A45"/>
<path d="M37.043 31.4358C42.0535 29.529 48.4129 29.4384 53.606 30.6718C54.3802 30.8871 55.1477 31.1333 55.8978 31.3997C55.9534 31.4194 56.0045 31.4498 56.0483 31.4892C56.0921 31.5286 56.1277 31.5763 56.1531 31.6295C56.1785 31.6827 56.1931 31.7404 56.1962 31.7993C56.1992 31.8581 56.1907 31.917 56.171 31.9725C56.135 32.0724 56.0652 32.1564 55.9736 32.2101C55.8821 32.2638 55.7746 32.2837 55.6699 32.2664C54.8909 32.1995 54.1331 32.0737 53.3704 31.9884C49.5514 31.5924 45.6962 31.5621 41.8666 31.8039C40.3345 31.9104 38.8097 32.0819 37.2733 32.3016C36.7549 32.3758 36.5507 31.6305 37.043 31.4344V31.4358Z" fill="#371A45"/>
<path d="M26.6285 72.8593C22.1143 63.6189 18.9105 51.364 23.7297 41.6658C24.4567 40.2745 25.374 38.9703 26.5143 37.9017C26.8944 37.5534 27.4817 38.0188 27.2086 38.4683C20.5013 48.9156 23.7306 61.5738 27.4562 72.5154C27.6258 73.0284 26.8867 73.3609 26.6285 72.8593Z" fill="#371A45"/>
<g opacity="0.2">
<path d="M32.2783 52.8088V58.1681C32.2806 58.9366 32.5869 59.6729 33.1303 60.2164C33.6737 60.7598 34.4101 61.0661 35.1786 61.0684L58.0803 61.0684C58.8488 61.0661 59.5852 60.7598 60.1286 60.2164C60.672 59.6729 60.9783 58.9366 60.9806 58.1681V52.8088H70.7698L69.9787 45.9093C67.1897 46.286 64.0755 46.6893 60.9806 47.0545V43.5578C60.9783 42.7892 60.672 42.0529 60.1286 41.5095C59.5852 40.966 58.8488 40.6598 58.0803 40.6575H35.1786C34.4101 40.6598 33.6737 40.966 33.1303 41.5095C32.5869 42.0529 32.2806 42.7892 32.2783 43.5578V47.1017C29.0986 46.7013 25.9073 46.2509 23.1207 45.8375C23.0176 46.2316 22.9235 46.6357 22.8384 47.0497C22.4621 48.8616 22.2892 50.7858 22.3085 52.8088H32.2783Z" fill="#371A45"/>
</g>
<path d="M33.7844 55.1989C33.7844 55.1989 26.1183 55.7833 22.8914 53.4602C19.4626 50.9911 22.9174 48.1346 22.9174 48.1346C22.9174 48.1346 29.0914 49.4836 34.2762 49.2909L33.7844 55.1989Z" fill="white"/>
<g opacity="0.2">
<path d="M22.9165 48.1337C22.9165 48.1337 29.0928 49.4826 34.2762 49.2899L34.0903 51.5345C30.4866 51.6444 26.4479 51.0306 24.3526 50.6533C23.2388 50.4529 22.1095 51.0137 21.6465 52.0466C21.6417 52.0567 21.6373 52.0669 21.633 52.0765C20.6184 50.0357 22.9165 48.1337 22.9165 48.1337Z" fill="#371A45"/>
</g>
<path d="M58.6541 55.1989C58.6541 55.1989 66.3201 55.7833 69.547 53.4602C72.9763 50.9911 69.5215 48.1346 69.5215 48.1346C69.5215 48.1346 63.3471 49.4836 58.1622 49.2909L58.6541 55.1989Z" fill="white"/>
<path d="M22.6822 47.1662L23.1081 47.2592C23.1688 47.2722 29.2373 48.5797 34.2434 48.3947L35.2551 48.3571L34.6134 56.0342L33.8522 56.0925C33.5255 56.1171 25.82 56.6735 22.3676 54.1871C21.154 53.3131 20.5186 52.2764 20.4795 51.1037C20.4111 49.0663 22.2669 47.5082 22.346 47.4422L22.6822 47.1662ZM33.2201 50.2052C29.0441 50.2052 24.6281 49.3944 23.1958 49.1072C22.7892 49.5408 22.2433 50.3021 22.2713 51.0503C22.293 51.6361 22.6779 52.2017 23.415 52.7326C25.5893 54.2984 30.4865 54.4453 32.9542 54.348L33.2991 50.2047L33.2201 50.2052Z" fill="#371944"/>
<path d="M69.759 47.1662L70.0963 47.4437C70.1753 47.5093 72.0306 49.0673 71.9627 51.1052C71.9236 52.2769 71.2882 53.3137 70.0746 54.1886C66.6222 56.6746 58.9167 56.1191 58.59 56.094L57.8283 56.0357L57.1895 48.3586L58.2012 48.3962C63.2088 48.5802 69.2758 47.2737 69.3365 47.2607L69.759 47.1662ZM60.7084 54.3707C63.3297 54.3707 67.1728 54.0672 69.0262 52.7327C69.7634 52.2027 70.1483 51.6361 70.17 51.0503C70.1979 50.3026 69.6525 49.5443 69.245 49.1073C67.8126 49.3964 63.3962 50.2053 59.2211 50.2053H59.1402L59.4852 54.3485C59.846 54.362 60.2594 54.3707 60.7084 54.3707Z" fill="#371944"/>
<path d="M33.2891 57.483V46.5669C33.2891 44.5411 34.8847 42.8838 36.8335 42.8838H56.1898C58.1405 42.8838 59.7338 44.5411 59.7338 46.5669V57.483C59.7338 59.5065 58.1405 61.1638 56.1898 61.1638H36.8335C35.2769 61.1638 33.9429 60.1039 33.4722 58.6474C33.3511 58.2712 33.2893 57.8783 33.2891 57.483Z" fill="white"/>
<g opacity="0.2">
<path d="M33.2891 57.483V46.5669C33.2891 44.541 34.8847 42.8837 36.8335 42.8837H56.1898C58.1405 42.8837 59.7338 44.541 59.7338 46.5669V50.2404C56.3941 48.321 49.7783 45.4386 43.138 47.8171C39.8942 48.9796 36.1754 52.9649 36.1754 52.9649C36.1754 52.9649 36.0309 48.7835 35.4345 48.8495C33.7738 49.0331 33.7858 57.4931 33.4722 58.6469C33.3511 58.2708 33.2893 57.8781 33.2891 57.483Z" fill="#371A45"/>
</g>
<path d="M36.7014 41.9889H56.3227C57.4649 41.9902 58.5599 42.4445 59.3675 43.2521C60.1752 44.0598 60.6295 45.1548 60.6307 46.297V57.7516C60.6295 58.8938 60.1752 59.9889 59.3675 60.7965C58.5599 61.6041 57.4649 62.0584 56.3227 62.0597H36.7014C35.5593 62.0584 34.4642 61.6041 33.6566 60.7965C32.849 59.9889 32.3947 58.8938 32.3934 57.7516V46.297C32.3947 45.1548 32.849 44.0598 33.6566 43.2521C34.4642 42.4445 35.5593 41.9902 36.7014 41.9889ZM56.3227 60.2675C56.9897 60.2667 57.6293 60.0014 58.101 59.5298C58.5727 59.0582 58.8381 58.4187 58.839 57.7516V46.297C58.8381 45.6299 58.5727 44.9904 58.101 44.5188C57.6293 44.0472 56.9897 43.7819 56.3227 43.7811H36.7014C36.0344 43.7819 35.3949 44.0472 34.9231 44.5188C34.4514 44.9904 34.186 45.6299 34.1851 46.297V57.7516C34.186 58.4187 34.4514 59.0582 34.9231 59.5298C35.3949 60.0014 36.0344 60.2667 36.7014 60.2675H56.3227Z" fill="#371944"/>
<path d="M39.6547 48.8501C37.9664 48.8501 36.5978 50.2713 36.5978 52.0245C36.5978 53.7777 37.9664 55.1989 39.6547 55.1989C41.3429 55.1989 42.7115 53.7777 42.7115 52.0245C42.7115 50.2713 41.3429 48.8501 39.6547 48.8501Z" fill="#22A7F0"/>
<path d="M36.5974 52.0231C36.5968 51.8115 36.617 51.6005 36.6577 51.3929C36.94 52.8464 38.1753 53.9405 39.6553 53.9405C41.1353 53.9405 42.3706 52.8464 42.651 51.3929C42.6914 51.6005 42.7116 51.8115 42.7112 52.0231C42.7112 53.7762 41.3434 55.1989 39.6553 55.1989C37.9671 55.1989 36.5974 53.7767 36.5974 52.0231Z" fill="white"/>
<path d="M36.5984 52.023C36.5984 50.2684 37.9676 48.8486 39.6548 48.8486C41.342 48.8486 42.7112 50.2684 42.7112 52.023C42.7113 52.31 42.674 52.5959 42.6004 52.8733C42.241 51.5345 41.0587 50.5512 39.6548 50.5512C38.2509 50.5512 37.0686 51.5345 36.7092 52.8733C36.6356 52.5959 36.5983 52.31 36.5984 52.023Z" fill="#1C7AEA"/>
<path d="M39.6547 48.1779C41.7109 48.1779 43.3837 49.9032 43.3837 52.0244C43.3837 54.1457 41.7109 55.8709 39.6547 55.8709C37.5985 55.8709 35.9258 54.1452 35.9258 52.0244C35.9258 49.9037 37.6004 48.1779 39.6547 48.1779ZM39.6547 54.5268C40.9695 54.5268 42.0395 53.4042 42.0395 52.0244C42.0395 50.6446 40.9695 49.5221 39.6547 49.5221C38.34 49.5221 37.2699 50.6446 37.2699 52.0244C37.2699 53.4042 38.34 54.5282 39.6547 54.5282V54.5268Z" fill="#371944"/>
<path d="M49.3293 41.9889C49.5669 41.9889 49.7949 42.0833 49.9629 42.2514C50.131 42.4194 50.2254 42.6474 50.2254 42.885V48.4736C50.2254 49.5754 50.7283 50.6262 51.571 51.2857L52.0624 51.6712C53.3362 52.667 54.0964 54.2462 54.0964 55.8954L54.0964 61.1636C54.0964 61.4012 54.002 61.6292 53.834 61.7972C53.6659 61.9653 53.438 62.0597 53.2003 62.0597C52.9627 62.0597 52.7347 61.9653 52.5667 61.7972C52.3986 61.6292 52.3042 61.4012 52.3042 61.1636V55.892C52.3042 54.7897 51.8013 53.7385 50.9586 53.0799L50.4672 52.6945C49.1934 51.6981 48.4332 50.1194 48.4332 48.4707V42.8821C48.4339 42.645 48.5287 42.4178 48.6966 42.2504C48.8646 42.0829 49.0921 41.9889 49.3293 41.9889Z" fill="#371944"/>
<path d="M46.3253 62.0807C45.8575 59.3254 46.2179 57.6271 46.863 56.4603C47.2865 55.6894 47.8376 55.1474 48.3526 54.6883C50.3578 52.9009 56.6637 52.424 56.6637 52.424C56.6637 52.424 68.8517 47.2054 76.3833 50.862C81.4029 53.3018 82.6464 60.353 80.4442 65.8665C80.2741 66.29 80.0747 66.7337 79.8439 67.1991C79.8436 67.2013 79.8436 67.2036 79.8439 67.2058C76.6223 73.7021 67.5615 83.5674 53.2017 84.8513L65.303 71.6025L67.1944 66.4282C62.1743 66.4798 58.6573 66.6118 57.6471 67.0733C56.6368 67.5349 56.9369 71.0494 55.958 72.396C55.4092 73.1528 53.2855 73.1148 52.6111 71.6478C51.8181 69.9134 52.943 67.8952 51.8855 67.1138C51.0992 66.5313 48.2722 67.4852 46.6192 65.9758C45.687 65.125 45.9351 63.1782 46.3253 62.0807Z" fill="white"/>
<g opacity="0.2">
<path d="M53.2003 84.8513L61.7485 75.4919C64.3067 76.769 66.3162 78.3526 67.5664 80.1333C63.2052 82.7918 58.2886 84.4065 53.2003 84.8513Z" fill="#371A45"/>
</g>
<g opacity="0.2">
<path d="M46.863 56.46C47.2865 55.6892 47.8376 55.1472 48.3526 54.6881C50.3578 52.9007 56.6638 52.4237 56.6638 52.4237C56.6638 52.4237 68.8517 47.2051 76.3833 50.8618C81.4029 53.3015 82.6464 60.3528 80.4442 65.8662C80.2741 66.2897 80.0747 66.7334 79.8439 67.1988C79.9292 66.8674 83.0718 54.4284 74.2071 52.0229C66.2477 49.8616 59.9239 54.9261 57.3662 55.1973C55.2478 55.4228 50.5192 53.288 46.863 56.46Z" fill="#371A45"/>
</g>
<path d="M53.1209 83.9575C61.8892 83.218 70.1758 78.6961 75.7085 71.8741C77.5132 69.6348 79.1382 67.1686 80.0006 64.4157C81.1622 60.4898 80.7382 55.6407 77.6293 52.7741C74.4289 50.0203 69.4165 50.2279 65.4577 50.8504C62.5661 51.3456 59.736 52.1498 57.0161 53.2491C56.925 53.2864 56.8289 53.3099 56.7309 53.319C55.3767 53.4344 54.031 53.633 52.7013 53.9135C51.494 54.1843 50.1089 54.5398 49.1294 55.2143C46.9176 56.8562 46.761 59.3398 47.2086 61.9312C47.2341 62.0824 47.2205 62.2377 47.1691 62.3822C46.907 63.1588 46.7533 64.1194 46.9807 64.897C47.0568 65.1018 47.1093 65.2232 47.2746 65.3571C47.6354 65.6732 48.1418 65.851 48.7324 65.9353C50.3324 66.1959 52.7206 65.3836 53.2009 67.6774C53.5184 69.1791 52.43 71.7864 54.6303 71.9849C54.8813 71.997 55.1275 71.942 55.2373 71.863C55.3079 71.76 55.3666 71.6493 55.4122 71.533C56.0019 70.0877 55.7495 68.2044 56.647 66.7846C57.0556 66.1487 58.0466 66.0037 58.684 65.9064C60.1572 65.7069 61.5558 65.6655 62.9718 65.612C64.4291 65.5773 65.8807 65.5262 67.3309 65.5431C67.909 65.572 68.2877 66.2176 68.0372 66.7369L65.7246 71.7546C65.4876 72.2485 64.7433 71.9729 64.883 71.4463L66.3548 66.1212L67.2056 67.3257C65.8085 67.3406 64.4157 67.3608 63.0286 67.4037C61.3477 67.5001 59.5926 67.4476 58.0316 67.8855C58.0129 67.8927 58.0355 67.8855 58.0442 67.8783C58.0528 67.871 58.1155 67.8233 58.0952 67.8436C57.9223 68.1326 57.8544 68.5576 57.7749 68.9589C57.5171 70.2645 57.5007 71.6949 56.6904 72.9171C56.2192 73.583 55.2614 73.8161 54.5576 73.7757C52.4103 73.6832 51.3297 71.9338 51.4121 69.9412C51.3827 69.2585 51.5975 68.4443 51.3923 67.8725C51.3836 67.8551 51.3379 67.8272 51.3875 67.8566C51.2791 67.8045 50.8845 67.7968 50.6961 67.7935C49.113 67.8277 47.0303 67.7935 45.8355 66.4517C44.7544 65.1341 45.0039 63.272 45.4838 61.7785L45.4443 62.2294C45.0695 60.0643 45.0372 57.4276 46.4151 55.4846C46.8791 54.8317 47.4386 54.2523 48.0748 53.7656C48.7796 53.2597 49.4922 52.9851 50.1999 52.7341C52.2913 52.05 54.4174 51.734 56.5979 51.5297L56.3127 51.5995C59.1637 50.4443 62.1314 49.6009 65.1639 49.0842C69.7003 48.3707 75.1366 48.2474 78.8256 51.441C82.4977 54.8062 83.0652 60.3736 81.7162 64.9336C78.8964 73.3435 70.4648 80.6814 62.2722 83.6978C59.3878 84.7958 56.3464 85.4539 53.2804 85.7439C53.1624 85.7558 53.0433 85.7442 52.9299 85.7098C52.8165 85.6753 52.711 85.6187 52.6196 85.5432C52.5282 85.4676 52.4528 85.3748 52.3975 85.2699C52.3423 85.165 52.3084 85.0502 52.2979 84.9321C52.2873 84.814 52.3003 84.695 52.3361 84.582C52.3718 84.469 52.4297 84.3642 52.5062 84.2737C52.5828 84.1832 52.6765 84.1088 52.782 84.0547C52.8875 84.0007 53.0027 83.9682 53.1209 83.959V83.9575Z" fill="#371A45"/>
<path d="M75.4646 64.3564C75.4646 64.3564 73.3448 66.0426 67.1935 66.4281L75.4646 64.3564Z" fill="white"/>
<path d="M75.7441 64.7082C74.5141 65.6235 73.0529 66.1092 71.6008 66.5177C70.2186 66.9031 68.6755 67.1513 67.2499 67.3228C66.0103 67.4365 65.8643 65.6154 67.1111 65.5349C69.189 65.5017 71.346 65.3369 73.3439 64.7573C73.9943 64.5646 74.6548 64.3314 75.2319 63.9797C75.7026 63.6989 76.168 64.3603 75.7446 64.7082H75.7441Z" fill="#371A45"/>
<path d="M74.4115 49.4541C74.519 49.4539 74.625 49.4796 74.7205 49.529C74.816 49.5784 74.8982 49.6501 74.9602 49.7379C77.0207 52.6483 77.542 55.6204 76.5096 58.5713C74.8027 63.4502 69.5238 66.4531 67.3804 67.0741C67.2933 67.1075 67.2001 67.1225 67.1068 67.118C67.0136 67.1136 66.9223 67.0898 66.8387 67.0483C66.7551 67.0067 66.6811 66.9482 66.6212 66.8765C66.5614 66.8049 66.5171 66.7216 66.4911 66.6319C66.4652 66.5422 66.4581 66.4482 66.4704 66.3556C66.4827 66.2631 66.514 66.1741 66.5625 66.0943C66.6109 66.0145 66.6754 65.9456 66.7518 65.892C66.8283 65.8384 66.915 65.8013 67.0066 65.783C69.162 65.1567 73.7904 62.2732 75.2411 58.1271C76.1213 55.6108 75.6578 53.0496 73.8637 50.515C73.7925 50.4145 73.7503 50.2964 73.7417 50.1735C73.7331 50.0506 73.7585 49.9278 73.815 49.8184C73.8716 49.7089 73.9571 49.6172 74.0623 49.5531C74.1675 49.489 74.2883 49.4551 74.4115 49.4551V49.4541Z" fill="#371A45"/>
<path d="M11.1785 124.997C11.1785 124.997 3.0225 121.905 2.18421 120.395C0.630003 117.596 0.918587 101.142 5.2194 96.8531C6.90272 95.1732 19.2704 93.6036 19.2704 93.6036L11.1785 124.997Z" fill="white"/>
<g opacity="0.2">
<path d="M19.2684 93.6038C19.2684 93.6038 6.90078 95.1739 5.21842 96.8538C3.53606 98.5338 2.47229 102.057 1.88983 105.904C2.02617 105.781 6.39442 102.011 15.1083 109.674L15.1242 109.687L19.2684 93.6038Z" fill="#371A45"/>
</g>
<path d="M46.536 107.825V107.684L46.6256 107.753L46.536 107.825Z" fill="#D8D8D8"/>
<path d="M46.6256 107.753L46.7147 107.684V107.825L46.6256 107.753Z" fill="#D8D8D8"/>
<path d="M73.5631 93.6036C73.5631 93.6036 85.9307 95.1737 87.6131 96.8537C89.2954 98.5336 90.3592 102.057 90.9417 105.904C91.8532 111.908 91.5911 118.686 90.6434 120.393C89.8056 121.903 81.6497 124.997 81.6497 124.997L77.7049 109.685L73.5631 93.6036Z" fill="white"/>
<g opacity="0.2">
<path d="M73.563 93.6038C73.563 93.6038 85.9307 95.1739 87.6131 96.8538C89.2954 98.5338 90.3592 102.057 90.9417 105.904C90.8048 105.781 86.437 102.011 77.7227 109.674C77.7184 109.678 77.7116 109.683 77.7073 109.687L73.563 93.6038Z" fill="#371A45"/>
</g>
<path d="M20.4657 92.5485L11.7966 126.19L10.861 125.835C8.31676 124.872 2.30083 122.452 1.40088 120.83C-0.32147 117.727 -0.102753 100.896 4.58444 96.2186C6.39303 94.4144 17.0398 92.9835 19.1557 92.7147L20.4657 92.5485ZM10.5623 123.798L18.0693 94.6668C12.5034 95.4377 6.69944 96.6383 5.85055 97.4871C1.88024 101.449 1.57527 117.452 2.9676 119.96C3.38578 120.648 7.06174 122.41 10.5623 123.798Z" fill="#371A45"/>
<path d="M72.3649 92.5485L73.6749 92.7147C75.7908 92.9835 86.4376 94.4144 88.2457 96.2186C92.9333 100.896 93.1521 117.727 91.4297 120.83C90.5293 122.452 84.5138 124.87 81.9696 125.835L81.034 126.19L72.3649 92.5485ZM82.2678 123.797C85.7693 122.413 89.4463 120.648 89.864 119.959C91.2548 117.453 90.9504 101.449 86.98 97.4871C86.1297 96.6383 80.3272 95.4377 74.7613 94.6668L82.2678 123.797Z" fill="#371A45"/>
<path d="M46.4184 76.8701C25.5332 76.8701 8.60236 93.8009 8.60236 114.686C8.60236 135.571 25.5332 152.502 46.4184 152.502C67.3036 152.502 84.2344 135.571 84.2344 114.686C84.2344 93.8009 67.3036 76.8701 46.4184 76.8701Z" fill="white"/>
<g opacity="0.2">
<path d="M8.60143 114.687C8.60143 93.8017 25.532 76.8712 46.4174 76.8712C67.3029 76.8712 84.2368 93.8017 84.2368 114.687C84.2383 116.855 84.0532 119.019 83.6837 121.155C80.6158 103.351 65.0988 89.8083 46.4184 89.8083C27.738 89.8083 12.2234 103.351 9.15546 121.155C8.78562 119.019 8.60026 116.855 8.60143 114.687Z" fill="#371A45"/>
</g>
<path d="M46.4169 75.974C67.7629 75.974 85.129 93.3401 85.129 114.686C85.129 136.032 67.7644 153.398 46.4169 153.398C25.0694 153.398 7.7048 136.032 7.7048 114.686C7.7048 93.3401 25.0743 75.974 46.4169 75.974ZM46.4169 151.606C66.7748 151.606 83.3373 135.044 83.3373 114.686C83.3373 94.3282 66.7748 77.7657 46.4169 77.7657C26.059 77.7657 9.49701 94.3282 9.49701 114.686C9.49701 135.044 26.0605 151.606 46.4169 151.606Z" fill="#371A45"/>
<path d="M46.4169 75.974C67.7629 75.974 85.129 93.3401 85.129 114.686C85.129 136.032 67.7644 153.398 46.4169 153.398C25.0694 153.398 7.7048 136.032 7.7048 114.686C7.7048 93.3401 25.0743 75.974 46.4169 75.974ZM46.4169 151.606C66.7748 151.606 83.3373 135.044 83.3373 114.686C83.3373 94.3282 66.7748 77.7657 46.4169 77.7657C26.059 77.7657 9.49701 94.3282 9.49701 114.686C9.49701 135.044 26.0605 151.606 46.4169 151.606Z" fill="#371A45"/>
<path d="M46.4169 75.974C67.7629 75.974 85.129 93.3401 85.129 114.686C85.129 136.032 67.7644 153.398 46.4169 153.398C25.0694 153.398 7.7048 136.032 7.7048 114.686C7.7048 93.3401 25.0743 75.974 46.4169 75.974ZM46.4169 151.606C66.7748 151.606 83.3373 135.044 83.3373 114.686C83.3373 94.3282 66.7748 77.7657 46.4169 77.7657C26.059 77.7657 9.49701 94.3282 9.49701 114.686C9.49701 135.044 26.0605 151.606 46.4169 151.606Z" fill="#371A45"/>
<path d="M46.4169 75.9744C64.0562 75.9744 79.4532 87.8742 83.8812 104.918C83.8884 104.938 83.8947 104.959 83.9 104.981C85.0804 109.562 85.414 114.321 84.8843 119.022C82.7066 138.618 66.1697 153.398 46.4169 153.398C26.6641 153.398 10.1219 138.613 7.94567 119.009C7.42208 114.312 7.75541 109.559 8.92946 104.982C8.93523 104.959 8.94151 104.937 8.94873 104.916C13.384 87.8728 28.7839 75.9744 46.4169 75.9744ZM82.1594 105.416C77.9525 89.135 63.2564 77.7666 46.4169 77.7666C29.5774 77.7666 14.8804 89.1365 10.6692 105.417C10.6634 105.442 10.6562 105.465 10.648 105.49C9.54047 109.838 9.22807 114.35 9.72583 118.81C11.8047 137.507 27.5795 151.606 46.4169 151.606C65.2543 151.606 81.0243 137.512 83.1032 118.822C83.259 117.449 83.3369 116.068 83.3363 114.686C83.3389 111.585 82.9504 108.495 82.1801 105.49C82.1752 105.465 82.168 105.441 82.1618 105.416H82.1594Z" fill="#371A45"/>
<path d="M9.9196 123.707C10.0948 123.707 10.2661 123.759 10.4124 123.855C10.5587 123.951 10.6736 124.088 10.743 124.249C16.717 138.122 30.7222 147.085 46.4184 147.085C62.1051 147.085 76.1059 138.13 82.0877 124.269C82.1789 124.063 82.3443 123.899 82.5509 123.81C82.7575 123.72 82.9902 123.712 83.2027 123.786C83.4152 123.861 83.592 124.012 83.6978 124.211C83.8036 124.41 83.8308 124.641 83.7739 124.859C79.2148 141.663 63.8534 153.399 46.417 153.399C28.9705 153.399 13.6057 141.654 9.05386 124.838C9.01812 124.705 9.0134 124.566 9.04003 124.431C9.06667 124.296 9.12397 124.169 9.2075 124.059C9.29103 123.95 9.39855 123.861 9.52177 123.8C9.645 123.739 9.78061 123.707 9.91816 123.707L9.9196 123.707ZM46.417 148.878C38.2716 148.878 30.4221 146.566 23.7172 142.189C20.9006 140.355 18.3258 138.175 16.0536 135.699C22.81 145.439 34.0681 151.606 46.417 151.606C58.7177 151.606 69.9358 145.482 76.7019 135.808C69.1852 143.989 58.259 148.878 46.417 148.878Z" fill="#371A45"/>
<path d="M8.60475 114.685C8.60258 111.487 9.00484 108.301 9.80197 105.204C9.80286 105.204 9.80373 105.204 9.80436 105.203C9.80499 105.203 9.80534 105.202 9.80534 105.201C16.3657 92.5268 30.2981 81.6214 46.4203 81.6214C62.5424 81.6214 76.473 92.5268 83.0319 105.201C83.0319 105.202 83.0322 105.203 83.0328 105.203C83.0335 105.204 83.0343 105.204 83.0352 105.204C83.835 108.301 84.2381 111.487 84.2348 114.685C84.235 116.1 84.1546 117.513 83.994 118.919C78.8924 133.035 64.0003 143.249 46.4155 143.249C28.8307 143.249 13.9327 133.028 8.83698 118.909C8.68089 117.507 8.60336 116.096 8.60475 114.685Z" fill="#371A45"/>
<g opacity="0.35">
<path d="M8.6033 114.684C8.60042 111.486 9.00219 108.301 9.79906 105.203C9.79996 105.203 9.80082 105.203 9.80145 105.202C9.80209 105.202 9.80244 105.201 9.80244 105.2C16.3623 92.5259 30.2948 81.6209 46.4174 81.6209C62.54 81.6209 76.471 92.5259 83.0318 105.2C83.0318 105.201 83.0322 105.202 83.0328 105.202C83.0335 105.203 83.0343 105.203 83.0352 105.203C83.5067 107.029 83.8406 108.888 84.0339 110.764C75.5547 101.239 63.227 94.309 49.5022 94.309C32.0166 94.309 16.7896 105.556 8.90778 119.091C8.88369 119.029 8.8596 118.97 8.8384 118.908C8.68162 117.505 8.60313 116.095 8.6033 114.684Z" fill="#111A28"/>
</g>
<path d="M46.4203 81.1397C54.0926 81.1397 61.7572 83.602 68.582 88.2603C74.7762 92.4869 80.0526 98.4128 83.4429 104.95C83.4688 104.991 83.4881 105.036 83.5002 105.084C84.3105 108.22 84.7198 111.446 84.7181 114.685C84.719 116.118 84.6386 117.549 84.4772 118.973C84.4733 119.01 84.4647 119.047 84.4517 119.082C81.8814 126.194 76.936 132.313 70.1555 136.778C63.2483 141.325 55.0412 143.729 46.4218 143.729C37.8023 143.729 29.5919 141.324 22.6837 136.775C15.9003 132.307 10.9568 126.186 8.38802 119.071C8.37494 119.036 8.36636 118.999 8.3625 118.961C7.84426 114.315 8.174 109.612 9.33568 105.083C9.34808 105.036 9.3674 104.99 9.39301 104.949C12.7833 98.4123 18.0606 92.486 24.2558 88.2594C31.0825 83.602 38.7476 81.1397 46.4203 81.1397ZM82.5853 105.384C76.5675 93.7892 63.0604 82.1032 46.4203 82.1032C29.7803 82.1032 16.2699 93.7892 10.252 105.384C9.13703 109.763 8.81864 114.306 9.31207 118.797C14.5177 133.136 29.4219 142.765 46.4203 142.765C63.4188 142.765 78.3173 133.14 83.5253 118.807C84.0242 114.312 83.7057 109.764 82.5853 105.383V105.384Z" fill="#371A45"/>
<g opacity="0.5">
<path d="M15.0341 115.539C14.4599 119.12 16.0982 122.36 18.6933 122.777C21.2885 123.193 23.8578 120.627 24.432 117.046C25.0063 113.465 23.368 110.224 20.7729 109.808C18.1777 109.392 15.6084 111.958 15.0341 115.539Z" fill="white"/>
</g>
<g opacity="0.5">
<path d="M22.9153 103.126C22.4325 104.724 23.1529 106.356 24.5243 106.77C25.8957 107.184 27.3989 106.225 27.8817 104.626C28.3645 103.028 27.6441 101.397 26.2727 100.982C24.9012 100.568 23.3981 101.528 22.9153 103.126Z" fill="white"/>
</g>
<g opacity="0.5">
<path d="M75.3928 103.349C75.3928 103.349 81.7123 122.138 71.674 129.88C61.6357 137.623 46.9729 137.888 47.2962 136.941C47.2962 136.941 63.4482 132.683 69.5393 119.722C74.2375 109.728 75.3928 103.349 75.3928 103.349Z" fill="white"/>
</g>
<path d="M77.2872 4.98048C66.5648 4.98048 57.8726 13.6727 57.8726 24.3951C57.8726 35.1175 66.5648 43.8097 77.2872 43.8097C88.0096 43.8097 96.7018 35.1175 96.7018 24.3951C96.7018 13.6727 88.0096 4.98048 77.2872 4.98048Z" fill="#FFD62C"/>
<path d="M57.8736 24.3942C57.8736 13.6738 66.5638 4.98159 77.2891 4.98159C84.7788 4.98159 91.278 9.22121 94.515 15.4361C91.0323 10.2368 85.1045 6.81618 78.3755 6.81618C67.6527 6.81618 58.96 15.5084 58.96 26.2317C58.9547 29.3454 59.703 32.4142 61.141 35.1759C59.0044 31.9867 57.8668 28.233 57.8736 24.3942Z" fill="#FFB42E"/>
<g opacity="0.7">
<path d="M58.7918 30.3074C61.4555 36.5223 67.271 41.0674 74.2269 41.9298V41.9192C74.1961 41.1912 75.6299 40.5389 77.4269 40.4608C79.2239 40.3828 80.7073 40.9123 80.7386 41.6407V41.647C89.4949 39.768 96.0591 31.983 96.0591 22.665C96.0615 20.6677 95.7545 18.682 95.149 16.7787C96.1762 19.186 96.7041 21.7768 96.7008 24.3941C96.7008 35.117 88.0081 43.8097 77.2852 43.8097C68.6268 43.8092 61.2903 38.1372 58.7918 30.3074Z" fill="white"/>
</g>
<path d="M77.2872 4.04826C88.5063 4.04826 97.634 13.1755 97.634 24.3951C97.634 35.6147 88.5063 44.7419 77.2872 44.7419C66.0681 44.7419 56.9404 35.6142 56.9404 24.3951C56.9404 13.176 66.0681 4.04826 77.2872 4.04826ZM77.2872 42.8769C87.4782 42.8769 95.7691 34.5861 95.7691 24.3951C95.7691 14.2041 87.4782 5.9132 77.2872 5.9132C67.0962 5.9132 58.8053 14.2041 58.8053 24.3951C58.8053 34.5861 67.0962 42.8769 77.2872 42.8769Z" fill="#371A45"/>
<path d="M77.2872 9.80166C69.2274 9.80166 62.6937 16.3354 62.6937 24.3951C62.6937 32.4549 69.2274 38.9886 77.2872 38.9886C85.3469 38.9886 91.8806 32.4549 91.8806 24.3951C91.8806 16.3354 85.3469 9.80166 77.2872 9.80166Z" fill="#FF9C43"/>
<path d="M77.2872 9.80166C69.2274 9.80166 62.6937 16.3354 62.6937 24.3951C62.6937 32.4549 69.2274 38.9886 77.2872 38.9886C85.3469 38.9886 91.8806 32.4549 91.8806 24.3951C91.8806 16.3354 85.3469 9.80166 77.2872 9.80166Z" fill="#FF9C43"/>
<path d="M62.6933 24.3942C62.6933 16.3355 69.2276 9.80119 77.2867 9.80119C83.8827 9.80119 89.4535 14.1752 91.2611 20.181C89.0719 14.8887 83.8581 11.1646 77.7714 11.1646C69.7103 11.1646 63.1779 17.6989 63.1779 25.7581C63.1759 27.1845 63.3838 28.6034 63.7951 29.9693C63.0641 28.2016 62.6897 26.307 62.6933 24.3942Z" fill="#FF7A45"/>
<path d="M91.8807 24.395C91.8807 32.4537 85.3464 38.988 77.2872 38.988C70.6913 38.988 65.1205 34.6139 63.3129 28.6081C65.5021 33.9004 70.7158 37.6245 76.8026 37.6245C84.8636 37.6245 91.396 31.0902 91.396 23.0311C91.3981 21.6047 91.1901 20.1857 90.7789 18.8199C91.5098 20.5875 91.8843 22.4822 91.8807 24.395Z" fill="#FF7A45"/>
<path d="M73.011 21.4693C73.011 19.7156 74.3628 18.3637 76.1796 17.9412V15.8291H78.5466V17.9836C80.3845 18.4697 81.8226 19.9271 81.9672 20.075L80.2776 21.7651C80.1509 21.6172 78.8409 20.2441 77.32 20.2441C76.1791 20.2441 75.441 20.814 75.441 21.4485C75.441 23.3496 81.694 23.709 81.694 27.3426C81.694 29.0958 80.3633 30.4476 78.5466 30.849V32.9615H76.1806V30.807C74.3426 30.3209 72.9045 28.8848 72.76 28.7354L74.4288 27.0453C74.5767 27.2144 75.9074 28.5239 77.4072 28.5239C78.548 28.5239 79.2861 27.994 79.2861 27.3619C79.2861 25.4617 73.011 25.1028 73.011 21.4693Z" fill="#FFD62C"/>
</svg>
